<?xml version="1.0" standalone="no"?>
<!DOCTYPE svg PUBLIC "-//W3C//DTD SVG 20010904//EN"
 "http://www.w3.org/TR/2001/REC-SVG-20010904/DTD/svg10.dtd">
<svg version="1.0" xmlns="http://www.w3.org/2000/svg"
 width="666.000000pt" height="375.000000pt" viewBox="0 0 666.000000 375.000000"
 preserveAspectRatio="xMidYMid meet">

<g transform="translate(0.000000,375.000000) scale(0.100000,-0.100000)"
fill="#000000" stroke="none">
<path d="M2729 3441 c-334 -62 -597 -248 -777 -551 -69 -118 -122 -316 -125
-470 -4 -203 24 -335 109 -507 203 -414 638 -649 1099 -593 106 13 258 56 340
98 153 77 339 239 426 372 252 384 237 867 -37 1233 -140 187 -330 317 -564
387 -95 29 -120 32 -265 35 -88 2 -181 0 -206 -4z m316 -254 c11 -3 40 -10 65
-16 289 -74 533 -312 611 -599 32 -117 32 -291 0 -401 -89 -313 -329 -531
-671 -612 -79 -19 -289 -16 -370 5 -185 48 -343 137 -451 253 -51 54 -125 162
-150 219 l-22 48 -14 -37 c-9 -20 -20 -37 -25 -37 -21 0 -88 44 -88 57 0 23
22 103 30 108 3 2 24 -10 45 -28 38 -31 38 -31 32 -7 -4 14 -15 71 -24 128
-16 97 -16 110 0 208 32 198 111 350 253 484 120 114 305 207 449 227 22 3 42
7 45 10 6 6 257 -3 285 -10z m-989 -422 c5 -28 2 -32 -39 -52 -49 -24 -57 -21
-76 28 -8 20 -4 29 27 62 l36 37 23 -22 c12 -13 25 -37 29 -53z m1762 55 c23
-21 26 -39 16 -77 -8 -29 -31 -29 -61 -1 -25 23 -29 48 -13 79 14 24 31 24 58
-1z m16 -584 c-3 -7 12 -28 32 -46 40 -34 40 -34 -18 -65 -35 -19 -52 -19 -70
3 -31 35 -29 55 8 95 33 35 59 42 48 13z"/>
<path d="M2684 3160 c-175 -39 -314 -120 -441 -254 -161 -170 -246 -416 -213
-619 30 -191 101 -338 223 -462 250 -253 630 -330 960 -194 242 100 418 297
489 546 29 103 31 266 4 373 -92 373 -436 631 -836 629 -63 0 -137 -8 -186
-19z m303 -102 c33 -31 30 -76 -8 -124 -17 -21 -34 -41 -38 -44 -28 -18 -53
-100 -61 -195 l-7 -80 -1 70 c-2 68 11 124 43 185 8 16 18 30 23 32 19 8 62
77 62 99 0 44 -26 68 -78 72 l-47 3 44 2 c34 2 50 -3 68 -20z m419 -155 c27
-15 52 -32 56 -37 16 -23 8 -111 -13 -150 -11 -21 -18 -40 -16 -43 3 -2 -6
-16 -19 -30 -30 -33 -30 -46 1 -63 14 -7 25 -17 25 -22 0 -21 -109 75 -110 97
0 6 11 -3 24 -19 l23 -30 18 28 c18 26 17 28 -5 68 -13 23 -18 38 -11 34 7 -5
17 -20 22 -34 l10 -27 19 25 c20 27 30 65 30 114 0 40 -6 47 -65 84 -61 39
-55 42 11 5z m-836 -44 c8 -12 23 -31 32 -43 17 -20 19 -20 32 -3 7 9 17 17
21 17 5 0 -3 -13 -18 -28 -15 -16 -26 -30 -24 -33 3 -2 7 -49 10 -104 3 -67 2
-87 -3 -60 -5 22 -9 69 -9 104 l-1 64 -27 -24 -28 -24 26 30 27 30 -24 38
c-13 20 -30 37 -38 37 -16 0 -42 -28 -55 -60 -6 -15 -10 -19 -10 -9 -1 9 8 28
20 43 l20 26 -95 0 c-84 0 -99 -3 -117 -21 -11 -11 -23 -19 -25 -16 -2 2 5 12
17 23 17 15 42 20 132 25 62 3 114 6 117 7 3 1 12 -8 20 -19z m3 -290 c31 -17
37 -28 37 -74 0 -31 -6 -44 -27 -61 l-27 -21 43 -88 c23 -48 40 -89 37 -92
-13 -14 -33 9 -50 58 -27 78 -52 109 -85 109 -41 0 -51 -17 -51 -92 0 -54 -3
-68 -15 -68 -13 0 -15 26 -15 170 l0 170 66 0 c36 0 75 -5 87 -11z m177 -131
c0 -157 -5 -188 -28 -188 -12 0 -14 9 -8 53 3 28 6 103 6 165 0 93 3 112 15
112 13 0 15 -22 15 -142z m285 122 c0 -12 -16 -16 -71 -18 l-72 -3 -5 -52 c-2
-29 -3 -55 0 -59 2 -5 33 -8 69 -8 85 0 83 -18 -3 -22 l-68 -3 -3 -62 -3 -63
76 0 c60 0 75 -3 75 -15 0 -17 -17 -18 -109 -9 l-61 7 0 164 0 164 88 -3 c69
-2 87 -6 87 -18z m126 10 c5 0 21 -24 34 -52 14 -29 43 -78 65 -108 22 -30 46
-66 53 -79 6 -14 18 -27 26 -29 12 -4 13 17 7 132 -7 132 -6 136 13 136 19 0
20 -8 23 -127 2 -71 2 -145 0 -165 -3 -35 -6 -38 -33 -38 -25 0 -29 4 -29 26
0 14 -9 33 -19 42 -20 17 -64 91 -102 170 -11 23 -24 42 -29 42 -6 0 -10 -24
-11 -52 -4 -204 -8 -238 -24 -238 -13 0 -15 26 -15 176 0 157 2 175 16 170 9
-3 20 -6 25 -6z m-75 -25 c9 -8 11 -15 6 -15 -5 0 -15 7 -22 15 -7 8 -9 15 -6
15 4 0 14 -7 22 -15z m214 -20 c-14 -8 -34 -14 -45 -14 -13 0 -8 5 15 14 46
18 61 18 30 0z m-314 -30 c77 -24 114 -64 114 -125 0 -43 -27 -93 -46 -86 -9
3 -47 6 -85 6 l-69 0 0 45 0 44 72 3 c62 3 73 6 76 22 6 27 -15 36 -85 36 -58
0 -61 1 -56 23 12 55 8 54 79 32z m-146 -131 c0 -97 -3 -124 -12 -118 -66 38
-68 42 -68 118 0 43 5 79 13 88 12 16 46 37 60 38 4 0 7 -57 7 -126z m760 40
c0 -35 -5 -47 -31 -68 -27 -23 -39 -26 -97 -24 l-67 1 71 6 c88 7 114 26 114
83 0 22 -5 49 -11 61 -10 21 -10 21 5 3 9 -11 16 -39 16 -62z m-1213 38 c6 -4
-10 -7 -35 -8 -26 0 -64 -7 -84 -16 -36 -16 -38 -19 -38 -66 0 -61 33 -93 115
-113 24 -6 26 -7 7 -8 -27 -1 -102 35 -119 58 -17 22 -16 106 1 120 35 29 127
49 153 33z m133 -97 c19 -14 30 -25 24 -25 -10 1 -73 50 -63 50 3 0 20 -11 39
-25z m718 -22 c-10 -2 -28 -2 -40 0 -13 2 -5 4 17 4 22 1 32 -1 23 -4z m-575
-10 c-7 -2 -19 -2 -25 0 -7 3 -2 5 12 5 14 0 19 -2 13 -5z m439 -115 c-27 -27
-4 -155 25 -144 9 4 13 1 11 -6 -6 -16 19 -45 65 -74 34 -22 47 -24 125 -22
l87 3 12 50 13 50 -4 -43 c-6 -66 -16 -72 -117 -72 -48 0 -91 5 -94 10 -12 19
-33 10 -44 -20 -5 -16 -13 -30 -16 -30 -3 0 1 15 8 33 14 32 13 34 -19 66
l-33 34 -38 -27 -38 -27 33 29 c32 29 32 29 17 65 -23 56 -18 137 8 137 7 0 7
-4 -1 -12z m-225 -70 c-2 -13 -4 -3 -4 22 0 25 2 35 4 23 2 -13 2 -33 0 -45z
m-337 -8 c8 5 40 10 71 10 50 0 59 -3 73 -25 23 -35 39 -78 26 -70 -6 3 -10
12 -10 19 0 7 -9 25 -21 40 -17 22 -28 26 -73 26 -30 0 -60 -6 -72 -15 -19
-14 -19 -15 4 -55 13 -23 22 -44 19 -46 -2 -2 -15 16 -28 41 -27 51 -38 54
-71 23 -88 -84 -88 -218 0 -231 l27 -4 -26 -2 c-16 0 -36 9 -53 25 -36 36 -36
99 0 159 21 36 23 48 14 67 -8 19 -8 20 2 6 11 -15 15 -15 50 3 26 13 38 26
39 42 l1 22 6 -22 c5 -17 11 -20 22 -13z m276 -168 c-52 -79 -59 -127 -29
-189 16 -35 17 -35 67 -30 l51 5 -42 -10 c-54 -14 -70 -6 -88 37 -28 65 -20
114 30 188 25 37 46 80 46 95 l2 27 4 -26 c3 -19 -9 -47 -41 -97z m410 83 c-7
-19 -15 -38 -19 -41 -7 -8 8 50 18 66 12 20 13 10 1 -25z m-756 -15 c6 -11 8
-20 6 -20 -3 0 -10 9 -16 20 -6 11 -8 20 -6 20 3 0 10 -9 16 -20z m480 -260
c-13 -11 -27 -20 -32 -20 -5 0 4 11 19 24 15 13 30 22 32 20 2 -2 -6 -13 -19
-24z"/>
<path d="M2450 2480 l0 -60 39 0 c32 0 44 6 65 31 14 17 26 37 26 44 0 23 -42
45 -87 45 l-43 0 0 -60z"/>
</g>
</svg>
